PathFileType	4	(X/Y/Z)	C:\Users\WrightLab\Desktop\Jo\P1_boxCal4.trc
DataRate	CameraRate	NumFrames	NumMarkers	Units	OrigDataRate	OrigDataStartFrame	OrigNumFrames
100.00	100.00	      49	19	mm	100.00	904	      1205
Frame#	Time	Headset_Front			Headset_Back			Headset_Left			Headset_Right			Left_Shoulder			Right_Shoulder			Sternum			C7			Left Elbow			Right Elbow			Left Wrist			Right Wrist			Left ASIS			Right ASIS			S2			Left Knee			Right Knee			Left Ankle			Right Ankle			
		X1	Y1	Z1	X2	Y2	Z2	X3	Y3	Z3	X4	Y4	Z4	X5	Y5	Z5	X6	Y6	Z6	X7	Y7	Z7	X8	Y8	Z8	X9	Y9	Z9	X10	Y10	Z10	X11	Y11	Z11	X12	Y12	Z12	X13	Y13	Z13	X14	Y14	Z14	X15	Y15	Z15	X16	Y16	Z16	X17	Y17	Z17	X18	Y18	Z18	X19	Y19	Z19	

904	9.030							-784.37897	506.02734	2444.33179	-336.47009	836.55273	2323.38672							-359.62936	1071.45325	2428.29346				-461.21704	145.53432	2477.78491							-935.08069	811.49884	2390.41797	-455.72714	510.07513	2443.35132																			
905	9.040							-784.41418	506.03134	2445.06885	-335.79187	836.53955	2323.97461							-359.56873	1071.27832	2427.96313				-461.22949	145.50116	2477.83276							-935.67157	811.69720	2390.11743	-456.01993	509.95547	2444.06299																			
906	9.050							-784.64862	506.08224	2445.79736	-334.94238	836.46582	2324.80762							-359.59613	1071.16711	2427.75732				-461.23425	145.47646	2477.87329							-936.41553	812.06464	2390.21362	-455.84573	510.30521	2445.23267																			
907	9.060							-784.57605	505.95428	2446.20532	-334.56882	836.44562	2325.13452							-359.52103	1071.07910	2427.59204				-461.24133	145.45514	2477.90479							-936.87604	812.38458	2390.49878	-455.92984	510.47867	2447.26147																			
908	9.070							-784.81226	506.02875	2446.85815	-333.81506	836.35278	2325.76270							-359.47211	1071.12280	2427.59790				-461.25751	145.42313	2477.94653							-937.76086	812.54901	2390.91772	-456.06024	510.42697	2447.41309																			
909	9.080							-784.75897	505.94568	2447.17310	-333.50897	836.27466	2326.34204							-359.48468	1071.08423	2427.53003	-473.00092	750.32312	2282.99585	-461.37860	145.30925	2478.19482							-938.92218	812.74896	2391.16309	-456.00900	510.54828	2447.45142																			
910	9.090							-784.94220	506.03369	2447.66650	-333.32697	836.44629	2326.77051							-359.68201	1071.02673	2427.66309				-461.37402	145.29585	2478.22461							-939.96783	813.03577	2391.27661	-456.07248	510.52594	2447.72827																			
911	9.100							-784.93689	506.05301	2447.88257	-332.83984	836.33624	2327.24121							-359.66656	1070.97278	2427.70752				-461.39377	145.26949	2478.25195							-940.77130	813.45660	2391.39893	-456.13760	510.44431	2447.96802																			
912	9.110							-784.95380	506.02692	2447.88843	-332.30505	836.23163	2327.74683							-359.59570	1070.88013	2427.77783				-461.40762	145.24944	2478.27393							-941.29913	813.78394	2391.42261	-456.12793	510.40158	2448.13843																			
913	9.120							-785.10370	506.07077	2447.95996	-332.06247	836.21631	2328.35815							-359.76492	1070.88708	2428.12231				-461.40656	145.24547	2478.28223							-941.80316	813.94757	2391.38721	-456.34677	510.37527	2448.61768																			
914	9.130							-785.13220	506.12943	2447.87622	-331.58472	836.29779	2329.14453							-360.01810	1070.85449	2428.58813				-461.40720	145.23596	2478.29932							-942.23712	814.23602	2391.79419	-456.31821	510.36121	2448.59863																			
915	9.140							-785.39502	506.21463	2447.78345	-331.24152	836.28192	2329.91235							-359.95288	1070.78369	2428.82886				-461.41968	145.21747	2478.31982							-942.73865	814.33240	2392.14331	-456.33783	510.36929	2448.61084																			
916	9.150							-785.35052	506.30011	2447.54370	-330.95950	836.36652	2330.98975							-360.06525	1070.92163	2429.32935				-461.42172	145.21535	2478.32153							-943.42847	814.57971	2392.72852	-456.32877	510.40088	2448.62280																			
917	9.160							-785.52911	506.35165	2447.29590	-330.77716	836.49554	2331.81616							-360.20242	1071.04456	2429.83643	-490.12708	765.78082	2302.88257	-461.42969	145.20386	2478.33398							-943.90430	814.77032	2393.16699	-456.30566	510.42435	2448.62451																			
918	9.170							-785.76917	506.38379	2447.07715	-330.58423	836.45703	2332.62866							-360.27988	1071.27063	2430.40186				-461.42905	145.20874	2478.32568							-944.59442	814.97565	2393.76904	-456.24683	510.48941	2448.63184																			
919	9.180							-785.63202	506.42285	2446.71973	-330.64230	836.48236	2333.37939													-461.42648	145.21236	2478.32178							-945.12378	815.16577	2394.32031	-456.22003	510.53290	2448.64209																			
920	9.190							-785.76520	506.41608	2446.47803	-330.63367	836.66223	2334.16235				-360.39096	1071.56702	2431.41724							-461.43353	145.20569	2478.32642							-945.57275	815.32721	2395.04224	-456.27438	510.48990	2448.64380																			
921	9.200							-785.86133	506.46814	2446.33252	-330.92529	836.66571	2334.05298				-360.23026	1071.53906	2431.74121							-461.42804	145.21416	2478.31665							-945.95142	815.61975	2395.91406	-456.30588	510.49011	2448.65723										-490.23566	765.66180	2303.17993							
922	9.210							-785.98999	506.45895	2446.24756	-331.06525	836.66254	2335.60913				-360.49643	1071.65051	2432.60938							-461.43109	145.21225	2478.31689							-946.27136	815.83307	2396.70239	-456.27789	510.58945	2448.48535																			
923	9.220							-786.11407	506.32291	2445.97559	-330.81741	836.39868	2337.40991				-360.32443	1071.71692	2433.33496							-461.42953	145.21587	2478.31201							-946.42450	815.90350	2397.21143	-456.29663	510.58356	2448.49023																			
924	9.230							-786.10638	506.40051	2445.97974	-330.87808	836.22186	2337.84912				-360.30148	1071.75793	2434.00562							-461.43369	145.21786	2478.30371							-946.49799	815.86707	2397.49683	-456.31940	510.56622	2448.49146																			
925	9.240							-786.22882	506.40289	2445.98706	-331.04260	836.20105	2338.23413							-490.57797	765.47675	2303.64063				-461.42520	145.22562	2478.29858							-946.70679	815.88464	2397.94287	-456.34540	510.52441	2448.48169																			
926	9.250							-786.35040	506.51248	2446.11865	-331.23175	836.11188	2338.87573				-360.26074	1071.76819	2435.86938							-461.42386	145.23538	2478.28198							-946.91034	816.06335	2398.51440	-456.34384	510.53711	2448.48730																			
927	9.260							-786.30359	506.41806	2446.03760	-331.31210	836.14838	2339.59912				-360.26178	1071.60535	2436.49438							-461.42462	145.23276	2478.28613							-946.95905	816.16858	2398.77246	-456.37085	510.54001	2448.50024																			
928	9.270							-786.30176	506.53574	2446.15967	-331.57608	835.98645	2340.33276				-360.25351	1071.61475	2437.27148							-461.42825	145.23140	2478.28467							-947.11450	816.25885	2399.04663	-456.25922	510.55148	2448.27734																			
929	9.280							-786.54364	506.49442	2446.20752	-331.79266	835.75409	2341.48291				-360.22891	1071.40930	2437.82104							-461.43066	145.23007	2478.28442							-947.23572	816.37305	2399.24683	-456.29092	510.50928	2448.27002																			
930	9.290							-786.62640	506.50363	2446.24927	-331.91895	835.65741	2341.94019				-360.43375	1071.31982	2438.72485							-461.42139	145.24170	2478.27295							-947.35004	816.55780	2399.54468	-456.45129	510.46173	2448.49561																			
931	9.300							-786.60974	506.60254	2446.29517	-332.51566	835.61884	2341.85229				-360.51688	1071.17358	2439.59082							-461.42300	145.24356	2478.26782							-947.40753	816.59418	2399.52441	-456.48428	510.45447	2448.50586																			
932	9.310							-786.69922	506.59158	2446.29761	-332.93176	835.28070	2342.34814				-360.55228	1071.16272	2440.40210							-461.42178	145.24861	2478.25977							-947.43658	816.75757	2399.65332	-456.58585	510.51639	2448.49292																			
933	9.320							-786.82263	506.61633	2446.28711	-332.92758	835.20715	2343.48218				-360.87250	1070.87866	2441.25586							-461.42691	145.24930	2478.25293							-947.46625	816.79968	2399.76514	-456.33130	510.61008	2448.05859										-477.77963	749.51685	2282.61475							
934	9.330							-786.89038	506.68210	2446.31665	-333.07379	835.10571	2344.19849				-360.79550	1070.66748	2441.81470							-461.42950	145.25606	2478.23755							-947.39142	816.90588	2399.94580	-456.24713	510.68497	2447.81787																			
935	9.340							-786.96204	506.56421	2446.10938	-333.22699	834.87561	2344.69238													-461.43036	145.25772	2478.23340							-947.44684	816.92133	2400.09009	-456.24799	510.66852	2447.81006																			
936	9.350							-787.07465	506.59897	2446.08301	-333.32526	834.70288	2345.40430													-461.42139	145.26617	2478.22754							-947.26782	816.91003	2400.26880	-456.27011	510.70099	2447.83569																			
937	9.360							-786.93835	506.49747	2445.88477	-333.46439	834.53259	2345.88208				-360.94318	1070.48645	2443.45654							-461.43195	145.25806	2478.23120							-947.22974	816.88696	2400.53613	-456.33417	510.61072	2447.81787										-478.27652	749.19061	2283.41748							
938	9.370							-787.11334	506.62137	2446.01978	-333.67462	834.31317	2346.22656				-360.80109	1070.47778	2443.90918							-461.43344	145.26433	2478.21777							-947.09534	816.78314	2400.72754	-456.29782	510.62909	2447.81177																			
939	9.380							-787.13104	506.63647	2445.96411	-333.96289	834.23560	2346.25024				-360.96063	1070.33679	2444.26978							-461.43201	145.26707	2478.21436							-946.88855	816.62976	2400.87061	-456.29431	510.59470	2447.79321																			
940	9.390							-787.29889	506.70175	2445.99390	-334.39133	834.03394	2347.08105				-360.94632	1070.16199	2444.46021							-461.43060	145.26631	2478.21729							-946.77496	816.58099	2401.17188	-456.28595	510.62708	2447.80566																			
941	9.400							-787.28131	506.66040	2445.86084	-334.49396	833.89673	2347.05347				-360.84427	1070.34021	2444.76392							-461.42685	145.26521	2478.22339							-946.55377	816.41156	2401.25415	-456.28784	510.62823	2447.80713										-478.34869	749.05457	2283.75464							
942	9.410							-787.17133	506.70496	2445.81519	-335.07410	833.95270	2346.66772				-360.68091	1070.48364	2444.97290							-461.42679	145.26393	2478.22583							-946.31134	816.32086	2401.41895	-456.26370	510.62650	2447.79590																			
943	9.420							-787.12585	506.75848	2445.81812	-335.28018	833.91125	2347.00854				-360.64139	1070.53357	2444.92896							-461.43045	145.25793	2478.23291							-945.94653	816.13080	2401.25586	-456.27438	510.67474	2447.82446																			
944	9.430							-787.24884	506.82022	2445.77441	-335.35880	833.96747	2347.03833				-360.39603	1070.75891	2444.86108							-461.42139	145.26350	2478.23267							-945.46619	816.07721	2401.17603	-456.23178	510.62564	2447.78198																			
945	9.440							-787.31927	506.73288	2445.63135	-335.66165	834.03748	2347.17969				-360.20825	1070.78955	2444.61328							-461.42645	145.25237	2478.24756							-944.98828	815.90753	2400.97705	-456.14371	510.75143	2447.55273										-478.00742	749.10010	2283.64746							
946	9.450							-787.34467	506.87964	2445.75928	-335.84201	834.06323	2346.76270													-461.42090	145.25307	2478.25244							-944.62109	815.72253	2400.87646	-456.10126	510.76346	2447.54053																			
947	9.460							-787.29468	506.91306	2445.74048	-335.66989	834.24933	2347.73560													-461.42773	145.24562	2478.25879							-944.15015	815.68683	2401.12378	-456.05032	510.82028	2447.54712																			
948	9.470							-787.29102	507.04410	2445.90552	-335.67365	834.39832	2347.74731				-359.78317	1071.63196	2443.86743							-461.42007	145.24930	2478.26025							-943.70264	815.52411	2401.16187	-455.98831	510.78928	2447.50537																			
949	9.480							-787.37292	506.91962	2445.78198	-335.81061	834.59161	2347.32813				-359.63971	1071.96875	2443.59985							-461.41833	145.24710	2478.26636							-943.30817	815.18555	2401.11719	-455.92255	510.80463	2447.48511																			
950	9.490							-787.20135	507.00757	2445.86816	-335.79767	834.71674	2347.22388				-359.51752	1072.15710	2443.05640							-461.41696	145.24875	2478.26489							-943.03387	814.94446	2401.24121	-455.68518	510.81970	2447.32690																			
951	9.500							-787.16693	507.02390	2445.99463	-335.81827	834.75629	2347.13501				-359.44220	1072.43860	2442.60645							-461.41586	145.24786	2478.26758										-455.63947	510.83582	2447.31543																			
952	9.510							-787.12848	507.08414	2446.13086	-335.81357	834.83252	2346.89844				-359.26978	1072.70496	2442.12744							-461.41980	145.24141	2478.27539										-455.59323	510.85321	2447.30444																			
